<?xml version="1.0" encoding="UTF-8"?><svg xmlns="http://www.w3.org/2000/svg" xmlns:xlink="http://www.w3.org/1999/xlink" fill-opacity="1" color-rendering="auto" color-interpolation="auto" text-rendering="auto" stroke="black" stroke-linecap="square" width="630" stroke-miterlimit="10" shape-rendering="auto" stroke-opacity="1" fill="black" stroke-dasharray="none" font-weight="normal" stroke-width="1" height="483" font-family="'Dialog'" font-style="normal" stroke-linejoin="miter" font-size="12px" stroke-dashoffset="0" image-rendering="auto">
  <!--Generated by ySVG 2.5-->
  <defs id="genericDefs"/>
  <g>
    <defs id="defs1">
      <clipPath clipPathUnits="userSpaceOnUse" id="clipPath1">
        <path d="M0 0 L630 0 L630 483 L0 483 L0 0 Z"/>
      </clipPath>
      <clipPath clipPathUnits="userSpaceOnUse" id="clipPath2">
        <path d="M-17 -29 L613 -29 L613 454 L-17 454 L-17 -29 Z"/>
      </clipPath>
      <clipPath clipPathUnits="userSpaceOnUse" id="clipPath3">
        <path d="M-16.5 -29.2924 L613.5 -29.2924 L613.5 453.7076 L-16.5 453.7076 L-16.5 -29.2924 Z"/>
      </clipPath>
      <clipPath clipPathUnits="userSpaceOnUse" id="clipPath4">
        <path d="M0 -0 L0 24 L24 24 L24 -0 Z"/>
      </clipPath>
      <clipPath clipPathUnits="userSpaceOnUse" id="clipPath5">
        <path d="M-17.5 -29.9487 L612.5 -29.9487 L612.5 453.0513 L-17.5 453.0513 L-17.5 -29.9487 Z"/>
      </clipPath>
      <clipPath clipPathUnits="userSpaceOnUse" id="clipPath6">
        <path d="M0 0 L0 24 L24 24 L24 0 Z"/>
      </clipPath>
      <clipPath clipPathUnits="userSpaceOnUse" id="clipPath7">
        <path d="M-17.5 -29.2612 L612.5 -29.2612 L612.5 453.7388 L-17.5 453.7388 L-17.5 -29.2612 Z"/>
      </clipPath>
      <clipPath clipPathUnits="userSpaceOnUse" id="clipPath8">
        <path d="M-17.5 -29.2924 L612.5 -29.2924 L612.5 453.7076 L-17.5 453.7076 L-17.5 -29.2924 Z"/>
      </clipPath>
      <clipPath clipPathUnits="userSpaceOnUse" id="clipPath9">
        <path d="M-17.5 -29.6049 L612.5 -29.6049 L612.5 453.3951 L-17.5 453.3951 L-17.5 -29.6049 Z"/>
      </clipPath>
      <clipPath clipPathUnits="userSpaceOnUse" id="clipPath10">
        <path d="M-17.5 -29.9174 L612.5 -29.9174 L612.5 453.0826 L-17.5 453.0826 L-17.5 -29.9174 Z"/>
      </clipPath>
    </defs>
    <g fill="rgb(255,255,214)" transform="translate(17,29)" stroke="rgb(255,255,214)">
      <rect x="-17" width="630" height="483" y="-29" clip-path="url(#clipPath2)" stroke="none"/>
    </g>
    <g fill="silver" stroke="silver">
      <path d="M10.9219 471 L10.9219 462.4062 L14.1719 462.4062 Q15.0156 462.4062 15.4688 462.4844 Q16.1094 462.5938 16.5312 462.8906 Q16.9688 463.1875 17.2188 463.7188 Q17.4844 464.25 17.4844 464.8906 Q17.4844 465.9844 16.7812 466.75 Q16.0938 467.5 14.2656 467.5 L12.0625 467.5 L12.0625 471 L10.9219 471 ZM12.0625 466.5 L14.2812 466.5 Q15.3906 466.5 15.8438 466.0938 Q16.3125 465.6719 16.3125 464.9219 Q16.3125 464.3906 16.0312 464.0156 Q15.7656 463.625 15.3281 463.5 Q15.0312 463.4219 14.2656 463.4219 L12.0625 463.4219 L12.0625 466.5 ZM18.4102 467.8906 Q18.4102 466.1562 19.3633 465.3281 Q20.1602 464.6406 21.3164 464.6406 Q22.5977 464.6406 23.4102 465.4844 Q24.2383 466.3125 24.2383 467.7969 Q24.2383 469 23.8789 469.6875 Q23.5195 470.375 22.8164 470.7656 Q22.1289 471.1406 21.3164 471.1406 Q20.0195 471.1406 19.207 470.3125 Q18.4102 469.4688 18.4102 467.8906 ZM19.4883 467.8906 Q19.4883 469.0781 20.0039 469.6719 Q20.5352 470.2656 21.3164 470.2656 Q22.1133 470.2656 22.6289 469.6719 Q23.1445 469.0781 23.1445 467.8594 Q23.1445 466.7031 22.6133 466.1094 Q22.0977 465.5156 21.3164 465.5156 Q20.5352 465.5156 20.0039 466.1094 Q19.4883 466.6875 19.4883 467.8906 ZM26.6152 471 L24.709 464.7812 L25.8027 464.7812 L26.7871 468.375 L27.1621 469.7031 Q27.1934 469.6094 27.4902 468.4219 L28.4746 464.7812 L29.5527 464.7812 L30.4902 468.3906 L30.8027 469.5781 L31.1621 468.375 L32.2246 464.7812 L33.2559 464.7812 L31.3027 471 L30.209 471 L29.2246 467.2656 L28.9746 466.2188 L27.7246 471 L26.6152 471 ZM38.3906 469 L39.4844 469.125 Q39.2344 470.0781 38.5312 470.6094 Q37.8281 471.1406 36.75 471.1406 Q35.3906 471.1406 34.5781 470.2969 Q33.7812 469.4531 33.7812 467.9375 Q33.7812 466.375 34.5938 465.5156 Q35.4062 464.6406 36.6875 464.6406 Q37.9375 464.6406 38.7188 465.4844 Q39.5156 466.3281 39.5156 467.875 Q39.5156 467.9688 39.5156 468.1562 L34.875 468.1562 Q34.9375 469.1875 35.4531 469.7344 Q35.9688 470.2656 36.75 470.2656 Q37.3281 470.2656 37.7344 469.9688 Q38.1562 469.6562 38.3906 469 ZM34.9375 467.2969 L38.4062 467.2969 Q38.3438 466.5 38.0156 466.1094 Q37.5 465.5 36.7031 465.5 Q35.9688 465.5 35.4688 465.9844 Q34.9844 466.4688 34.9375 467.2969 ZM40.7988 471 L40.7988 464.7812 L41.752 464.7812 L41.752 465.7188 Q42.1113 465.0625 42.4082 464.8594 Q42.7207 464.6406 43.0957 464.6406 Q43.627 464.6406 44.1738 464.9688 L43.8145 465.9531 Q43.4238 465.7188 43.0488 465.7188 Q42.6895 465.7188 42.4082 465.9375 Q42.1426 466.1406 42.0332 466.5156 Q41.8457 467.0781 41.8457 467.7344 L41.8457 471 L40.7988 471 ZM49.0605 469 L50.1543 469.125 Q49.9043 470.0781 49.2012 470.6094 Q48.498 471.1406 47.4199 471.1406 Q46.0605 471.1406 45.248 470.2969 Q44.4512 469.4531 44.4512 467.9375 Q44.4512 466.375 45.2637 465.5156 Q46.0762 464.6406 47.3574 464.6406 Q48.6074 464.6406 49.3887 465.4844 Q50.1855 466.3281 50.1855 467.875 Q50.1855 467.9688 50.1855 468.1562 L45.5449 468.1562 Q45.6074 469.1875 46.123 469.7344 Q46.6387 470.2656 47.4199 470.2656 Q47.998 470.2656 48.4043 469.9688 Q48.8262 469.6562 49.0605 469 ZM45.6074 467.2969 L49.0762 467.2969 Q49.0137 466.5 48.6855 466.1094 Q48.1699 465.5 47.373 465.5 Q46.6387 465.5 46.1387 465.9844 Q45.6543 466.4688 45.6074 467.2969 ZM55.5156 471 L55.5156 470.2188 Q54.9219 471.1406 53.7812 471.1406 Q53.0312 471.1406 52.4062 470.7344 Q51.7812 470.3125 51.4375 469.5781 Q51.0938 468.8438 51.0938 467.8906 Q51.0938 466.9688 51.4062 466.2031 Q51.7188 465.4375 52.3438 465.0469 Q52.9688 464.6406 53.7344 464.6406 Q54.2969 464.6406 54.7344 464.875 Q55.1719 465.1094 55.4531 465.4844 L55.4531 462.4062 L56.5 462.4062 L56.5 471 L55.5156 471 ZM52.1875 467.8906 Q52.1875 469.0938 52.6875 469.6875 Q53.1875 470.2656 53.875 470.2656 Q54.5625 470.2656 55.0469 469.7031 Q55.5312 469.1406 55.5312 467.9844 Q55.5312 466.7031 55.0312 466.1094 Q54.5469 465.5156 53.8281 465.5156 Q53.125 465.5156 52.6562 466.0938 Q52.1875 466.6562 52.1875 467.8906 ZM62.4609 471 L61.4766 471 L61.4766 462.4062 L62.5391 462.4062 L62.5391 465.4688 Q63.2109 464.6406 64.2422 464.6406 Q64.8203 464.6406 65.3203 464.875 Q65.8359 465.0938 66.1641 465.5156 Q66.5078 465.9375 66.6953 466.5312 Q66.8828 467.125 66.8828 467.7969 Q66.8828 469.3906 66.0859 470.2656 Q65.2891 471.1406 64.1953 471.1406 Q63.0859 471.1406 62.4609 470.2188 L62.4609 471 ZM62.4453 467.8438 Q62.4453 468.9531 62.7578 469.4531 Q63.2578 470.2656 64.1016 470.2656 Q64.7891 470.2656 65.2891 469.6719 Q65.8047 469.0781 65.8047 467.875 Q65.8047 466.6562 65.3203 466.0781 Q64.8359 465.5 64.1484 465.5 Q63.4609 465.5 62.9453 466.1094 Q62.4453 466.7031 62.4453 467.8438 ZM68.1191 473.3906 L67.9941 472.4062 Q68.3379 472.5 68.6035 472.5 Q68.9473 472.5 69.1504 472.375 Q69.3691 472.2656 69.5098 472.0625 Q69.6035 471.8906 69.8379 471.2656 Q69.8535 471.1875 69.9316 471.0156 L67.5566 464.7812 L68.6973 464.7812 L69.9941 468.375 Q70.2441 469.0625 70.4473 469.8281 Q70.6348 469.0938 70.8848 468.4062 L72.2129 464.7812 L73.2598 464.7812 L70.9004 471.1094 Q70.5098 472.125 70.3066 472.5156 Q70.0254 473.0469 69.6504 473.2812 Q69.291 473.5312 68.791 473.5312 Q68.4941 473.5312 68.1191 473.3906 ZM77.4531 473.3906 L77.3281 472.4062 Q77.6719 472.5 77.9375 472.5 Q78.2812 472.5 78.4844 472.375 Q78.7031 472.2656 78.8438 472.0625 Q78.9375 471.8906 79.1719 471.2656 Q79.1875 471.1875 79.2656 471.0156 L76.8906 464.7812 L78.0312 464.7812 L79.3281 468.375 Q79.5781 469.0625 79.7812 469.8281 Q79.9688 469.0938 80.2188 468.4062 L81.5469 464.7812 L82.5938 464.7812 L80.2344 471.1094 Q79.8438 472.125 79.6406 472.5156 Q79.3594 473.0469 78.9844 473.2812 Q78.625 473.5312 78.125 473.5312 Q77.8281 473.5312 77.4531 473.3906 ZM83.6875 471 L83.6875 462.4062 L89.4844 462.4062 L89.4844 463.4219 L84.8281 463.4219 L84.8281 466.0781 L88.8594 466.0781 L88.8594 467.0938 L84.8281 467.0938 L84.8281 471 L83.6875 471 ZM90.8301 463.625 L90.8301 462.4062 L91.8926 462.4062 L91.8926 463.625 L90.8301 463.625 ZM90.8301 471 L90.8301 464.7812 L91.8926 464.7812 L91.8926 471 L90.8301 471 ZM93.4648 471 L93.4648 462.4062 L94.5273 462.4062 L94.5273 471 L93.4648 471 ZM100.4121 469 L101.5059 469.125 Q101.2559 470.0781 100.5527 470.6094 Q99.8496 471.1406 98.7715 471.1406 Q97.4121 471.1406 96.5996 470.2969 Q95.8027 469.4531 95.8027 467.9375 Q95.8027 466.375 96.6152 465.5156 Q97.4277 464.6406 98.709 464.6406 Q99.959 464.6406 100.7402 465.4844 Q101.5371 466.3281 101.5371 467.875 Q101.5371 467.9688 101.5371 468.1562 L96.8965 468.1562 Q96.959 469.1875 97.4746 469.7344 Q97.9902 470.2656 98.7715 470.2656 Q99.3496 470.2656 99.7559 469.9688 Q100.1777 469.6562 100.4121 469 ZM96.959 467.2969 L100.4277 467.2969 Q100.3652 466.5 100.0371 466.1094 Q99.5215 465.5 98.7246 465.5 Q97.9902 465.5 97.4902 465.9844 Q97.0059 466.4688 96.959 467.2969 ZM102.4141 469.1406 L103.4453 468.9844 Q103.5391 469.6094 103.9297 469.9375 Q104.3359 470.2656 105.0703 470.2656 Q105.7891 470.2656 106.1328 469.9844 Q106.4922 469.6875 106.4922 469.2812 Q106.4922 468.9219 106.1797 468.7188 Q105.9609 468.5781 105.1016 468.3594 Q103.9453 468.0625 103.4922 467.8594 Q103.0547 467.6406 102.8203 467.2656 Q102.5859 466.8906 102.5859 466.4219 Q102.5859 466.0156 102.7734 465.6562 Q102.9609 465.2969 103.2891 465.0625 Q103.5391 464.8906 103.9609 464.7656 Q104.3828 464.6406 104.8828 464.6406 Q105.6016 464.6406 106.1484 464.8594 Q106.7109 465.0625 106.9766 465.4219 Q107.2422 465.7812 107.3359 466.375 L106.3047 466.5156 Q106.2422 466.0469 105.8984 465.7812 Q105.5703 465.5 104.9453 465.5 Q104.2266 465.5 103.9141 465.75 Q103.6016 465.9844 103.6016 466.3125 Q103.6016 466.5156 103.7266 466.6719 Q103.8672 466.8438 104.1328 466.9531 Q104.2891 467.0156 105.0703 467.2188 Q106.1953 467.5312 106.6328 467.7188 Q107.0703 467.9062 107.3203 468.2656 Q107.5703 468.625 107.5703 469.1719 Q107.5703 469.7031 107.2578 470.1719 Q106.9609 470.625 106.3828 470.8906 Q105.8047 471.1406 105.0703 471.1406 Q103.8516 471.1406 103.2109 470.6406 Q102.5859 470.125 102.4141 469.1406 Z" stroke="none" clip-path="url(#clipPath1)"/>
    </g>
    <g fill="rgb(255,255,204)" transform="matrix(1,0,0,1,17,29)" stroke="rgb(255,255,204)">
      <rect x="-6.5" width="163" height="86.4599" y="-18.2299" clip-path="url(#clipPath2)" stroke="none"/>
    </g>
    <g fill="gray" stroke-miterlimit="1.45" transform="matrix(1,0,0,1,17,29)" stroke-linecap="butt" stroke="gray">
      <rect fill="none" x="-6.5" width="163" height="86.4599" y="-18.2299" clip-path="url(#clipPath2)"/>
      <text x="63" y="-0.6052" clip-path="url(#clipPath2)" fill="black" font-family="'Inter'" stroke="none" xml:space="preserve">CdS</text>
      <line stroke-linecap="square" clip-path="url(#clipPath2)" fill="none" x1="-5" x2="155" y1="6" y2="6" stroke-miterlimit="10"/>
    </g>
    <g stroke-linecap="round" transform="matrix(0.6667,0,0,0.6667,14.5,38.2924)" fill="silver" image-rendering="optimizeQuality" stroke-linejoin="round" stroke="silver" stroke-width="2" stroke-miterlimit="4">
      <path fill="none" d="M12.4 2.7 C13.3 1.8 14.9 1.8 15.8 2.7 L21.3 8.2 C22.2 9.1 22.2 10.7 21.3 11.6 L17.6 15.3 C16.7 16.2 15.1 16.2 14.2 15.3 L8.7 9.8 C7.8 8.9 7.8 7.3 8.7 6.4 Z" clip-path="url(#clipPath4)"/>
    </g>
    <g stroke-linecap="round" transform="matrix(0.6667,0,0,0.6667,14.5,38.2924)" fill="silver" image-rendering="optimizeQuality" stroke-linejoin="round" stroke="silver" stroke-width="2" stroke-miterlimit="4">
      <path fill="none" d="M14 7 L17 10" clip-path="url(#clipPath4)"/>
    </g>
    <g stroke-linecap="round" transform="matrix(0.6667,0,0,0.6667,14.5,38.2924)" fill="silver" image-rendering="optimizeQuality" stroke-linejoin="round" stroke="silver" stroke-width="2" stroke-miterlimit="4">
      <path fill="none" d="M9.4 10.6 L2 18 L2 21 C2 21.6 2.4 22 3 22 L7 22 L7 19 L10 19 L10 16 L12 16 L13.4 14.6" clip-path="url(#clipPath4)"/>
    </g>
    <g stroke-miterlimit="1.45" font-size="11px" font-family="'Inter'" transform="matrix(1,0,0,1,17,29)" stroke-linecap="butt">
      <text x="19.5" xml:space="preserve" y="22.9487" clip-path="url(#clipPath2)" stroke="none">IDCdS</text>
    </g>
    <g stroke-miterlimit="1.45" font-size="11px" font-family="'Inter'" transform="matrix(1,0,0,1,17,29)" stroke-linecap="butt">
      <text x="95.5" xml:space="preserve" y="22.9487" clip-path="url(#clipPath2)" stroke="none">INTEGER</text>
      <text x="19.5" xml:space="preserve" y="42.2612" clip-path="url(#clipPath2)" stroke="none">NameCdS</text>
      <text x="95.5" xml:space="preserve" y="42.2612" clip-path="url(#clipPath2)" stroke="none">TEXT</text>
      <text x="19.5" xml:space="preserve" y="61.5737" clip-path="url(#clipPath2)" stroke="none">NumStudents</text>
      <text x="95.5" xml:space="preserve" y="61.5737" clip-path="url(#clipPath2)" stroke="none">INTEGER</text>
    </g>
    <g fill="rgb(255,255,204)" transform="matrix(1,0,0,1,17,29)" stroke="rgb(255,255,204)">
      <rect x="-3.5" width="157" height="67.1474" y="116.4263" clip-path="url(#clipPath2)" stroke="none"/>
    </g>
    <g fill="gray" stroke-miterlimit="1.45" transform="matrix(1,0,0,1,17,29)" stroke-linecap="butt" stroke="gray">
      <rect fill="none" x="-3.5" width="157" height="67.1474" y="116.4263" clip-path="url(#clipPath2)"/>
      <text x="43" y="134.051" clip-path="url(#clipPath2)" fill="black" font-family="'Inter'" stroke="none" xml:space="preserve">CourseCdS</text>
      <line stroke-linecap="square" clip-path="url(#clipPath2)" fill="none" x1="-2" x2="152" y1="140" y2="140" stroke-miterlimit="10"/>
    </g>
    <g stroke-linecap="round" transform="matrix(0.6667,0,0,0.6667,17.5,172.9487)" fill="silver" image-rendering="optimizeQuality" stroke-linejoin="round" stroke="silver" stroke-width="2" stroke-miterlimit="4">
      <path fill="none" d="M12.4 2.7 C13.3 1.8 14.9 1.8 15.8 2.7 L21.3 8.2 C22.2 9.1 22.2 10.7 21.3 11.6 L17.6 15.3 C16.7 16.2 15.1 16.2 14.2 15.3 L8.7 9.8 C7.8 8.9 7.8 7.3 8.7 6.4 Z" clip-path="url(#clipPath6)"/>
    </g>
    <g stroke-linecap="round" transform="matrix(0.6667,0,0,0.6667,17.5,172.9487)" fill="silver" image-rendering="optimizeQuality" stroke-linejoin="round" stroke="silver" stroke-width="2" stroke-miterlimit="4">
      <path fill="none" d="M14 7 L17 10" clip-path="url(#clipPath6)"/>
    </g>
    <g stroke-linecap="round" transform="matrix(0.6667,0,0,0.6667,17.5,172.9487)" fill="silver" image-rendering="optimizeQuality" stroke-linejoin="round" stroke="silver" stroke-width="2" stroke-miterlimit="4">
      <path fill="none" d="M9.4 10.6 L2 18 L2 21 C2 21.6 2.4 22 3 22 L7 22 L7 19 L10 19 L10 16 L12 16 L13.4 14.6" clip-path="url(#clipPath6)"/>
    </g>
    <g stroke-miterlimit="1.45" font-size="11px" font-family="'Inter'" transform="matrix(1,0,0,1,17,29)" stroke-linecap="butt">
      <text x="22.5" xml:space="preserve" y="157.6049" clip-path="url(#clipPath2)" stroke="none">IDCourse</text>
    </g>
    <g stroke-miterlimit="1.45" font-size="11px" font-family="'Inter'" transform="matrix(1,0,0,1,17,29)" stroke-linecap="butt">
      <text x="76.5" xml:space="preserve" y="157.6049" clip-path="url(#clipPath2)" stroke="none">INTEGER</text>
    </g>
    <g stroke-linecap="round" transform="matrix(0.6667,0,0,0.6667,148.5,172.9487)" fill="silver" image-rendering="optimizeQuality" stroke-linejoin="round" stroke="silver" stroke-width="2" stroke-miterlimit="4">
      <path fill="none" d="M7 7 L17 7 L17 17" clip-path="url(#clipPath6)"/>
    </g>
    <g stroke-linecap="round" transform="matrix(0.6667,0,0,0.6667,148.5,172.9487)" fill="silver" image-rendering="optimizeQuality" stroke-linejoin="round" stroke="silver" stroke-width="2" stroke-miterlimit="4">
      <path fill="none" d="M7 17 L17 7" clip-path="url(#clipPath6)"/>
    </g>
    <g stroke-linecap="round" transform="matrix(0.6667,0,0,0.6667,17.5,192.2612)" fill="silver" image-rendering="optimizeQuality" stroke-linejoin="round" stroke="silver" stroke-width="2" stroke-miterlimit="4">
      <path fill="none" d="M12.4 2.7 C13.3 1.8 14.9 1.8 15.8 2.7 L21.3 8.2 C22.2 9.1 22.2 10.7 21.3 11.6 L17.6 15.3 C16.7 16.2 15.1 16.2 14.2 15.3 L8.7 9.8 C7.8 8.9 7.8 7.3 8.7 6.4 Z" clip-path="url(#clipPath6)"/>
    </g>
    <g stroke-linecap="round" transform="matrix(0.6667,0,0,0.6667,17.5,192.2612)" fill="silver" image-rendering="optimizeQuality" stroke-linejoin="round" stroke="silver" stroke-width="2" stroke-miterlimit="4">
      <path fill="none" d="M14 7 L17 10" clip-path="url(#clipPath6)"/>
    </g>
    <g stroke-linecap="round" transform="matrix(0.6667,0,0,0.6667,17.5,192.2612)" fill="silver" image-rendering="optimizeQuality" stroke-linejoin="round" stroke="silver" stroke-width="2" stroke-miterlimit="4">
      <path fill="none" d="M9.4 10.6 L2 18 L2 21 C2 21.6 2.4 22 3 22 L7 22 L7 19 L10 19 L10 16 L12 16 L13.4 14.6" clip-path="url(#clipPath6)"/>
    </g>
    <g stroke-miterlimit="1.45" font-size="11px" font-family="'Inter'" transform="matrix(1,0,0,1,17,29)" stroke-linecap="butt">
      <text x="22.5" xml:space="preserve" y="176.9174" clip-path="url(#clipPath2)" stroke="none">IDCdS</text>
    </g>
    <g stroke-miterlimit="1.45" font-size="11px" font-family="'Inter'" transform="matrix(1,0,0,1,17,29)" stroke-linecap="butt">
      <text x="76.5" xml:space="preserve" y="176.9174" clip-path="url(#clipPath2)" stroke="none">INTEGER</text>
    </g>
    <g stroke-linecap="round" transform="matrix(0.6667,0,0,0.6667,148.5,192.2612)" fill="silver" image-rendering="optimizeQuality" stroke-linejoin="round" stroke="silver" stroke-width="2" stroke-miterlimit="4">
      <path fill="none" d="M7 7 L17 7 L17 17" clip-path="url(#clipPath6)"/>
    </g>
    <g stroke-linecap="round" transform="matrix(0.6667,0,0,0.6667,148.5,192.2612)" fill="silver" image-rendering="optimizeQuality" stroke-linejoin="round" stroke="silver" stroke-width="2" stroke-miterlimit="4">
      <path fill="none" d="M7 17 L17 7" clip-path="url(#clipPath6)"/>
    </g>
    <g fill="rgb(255,255,204)" transform="matrix(1,0,0,1,17,29)" stroke="rgb(255,255,204)">
      <rect x="214.5" width="171" height="86.4599" y="106.7701" clip-path="url(#clipPath2)" stroke="none"/>
    </g>
    <g fill="gray" stroke-miterlimit="1.45" transform="matrix(1,0,0,1,17,29)" stroke-linecap="butt" stroke="gray">
      <rect fill="none" x="214.5" width="171" height="86.4599" y="106.7701" clip-path="url(#clipPath2)"/>
      <text x="277" y="124.3948" clip-path="url(#clipPath2)" fill="black" font-family="'Inter'" stroke="none" xml:space="preserve">Courses</text>
      <line stroke-linecap="square" clip-path="url(#clipPath2)" fill="none" x1="215" x2="384" y1="131" y2="131" stroke-miterlimit="10"/>
    </g>
    <g stroke-linecap="round" transform="matrix(0.6667,0,0,0.6667,235.5,163.2924)" fill="silver" image-rendering="optimizeQuality" stroke-linejoin="round" stroke="silver" stroke-width="2" stroke-miterlimit="4">
      <path fill="none" d="M12.4 2.7 C13.3 1.8 14.9 1.8 15.8 2.7 L21.3 8.2 C22.2 9.1 22.2 10.7 21.3 11.6 L17.6 15.3 C16.7 16.2 15.1 16.2 14.2 15.3 L8.7 9.8 C7.8 8.9 7.8 7.3 8.7 6.4 Z" clip-path="url(#clipPath6)"/>
    </g>
    <g stroke-linecap="round" transform="matrix(0.6667,0,0,0.6667,235.5,163.2924)" fill="silver" image-rendering="optimizeQuality" stroke-linejoin="round" stroke="silver" stroke-width="2" stroke-miterlimit="4">
      <path fill="none" d="M14 7 L17 10" clip-path="url(#clipPath6)"/>
    </g>
    <g stroke-linecap="round" transform="matrix(0.6667,0,0,0.6667,235.5,163.2924)" fill="silver" image-rendering="optimizeQuality" stroke-linejoin="round" stroke="silver" stroke-width="2" stroke-miterlimit="4">
      <path fill="none" d="M9.4 10.6 L2 18 L2 21 C2 21.6 2.4 22 3 22 L7 22 L7 19 L10 19 L10 16 L12 16 L13.4 14.6" clip-path="url(#clipPath6)"/>
    </g>
    <g stroke-miterlimit="1.45" font-size="11px" font-family="'Inter'" transform="matrix(1,0,0,1,17,29)" stroke-linecap="butt">
      <text x="240.5" xml:space="preserve" y="147.9487" clip-path="url(#clipPath2)" stroke="none">IDCourse</text>
    </g>
    <g stroke-miterlimit="1.45" font-size="11px" font-family="'Inter'" transform="matrix(1,0,0,1,17,29)" stroke-linecap="butt">
      <text x="308.5" xml:space="preserve" y="147.9487" clip-path="url(#clipPath2)" stroke="none">INTEGER</text>
      <text x="240.5" xml:space="preserve" y="167.2612" clip-path="url(#clipPath2)" stroke="none">IDProfessor</text>
      <text x="308.5" xml:space="preserve" y="167.2612" clip-path="url(#clipPath2)" stroke="none">INTEGER</text>
    </g>
    <g stroke-linecap="round" transform="matrix(0.6667,0,0,0.6667,380.5,182.6049)" fill="silver" image-rendering="optimizeQuality" stroke-linejoin="round" stroke="silver" stroke-width="2" stroke-miterlimit="4">
      <path fill="none" d="M7 7 L17 7 L17 17" clip-path="url(#clipPath6)"/>
    </g>
    <g stroke-linecap="round" transform="matrix(0.6667,0,0,0.6667,380.5,182.6049)" fill="silver" image-rendering="optimizeQuality" stroke-linejoin="round" stroke="silver" stroke-width="2" stroke-miterlimit="4">
      <path fill="none" d="M7 17 L17 7" clip-path="url(#clipPath6)"/>
    </g>
    <g stroke-miterlimit="1.45" font-size="11px" font-family="'Inter'" transform="matrix(1,0,0,1,17,29)" stroke-linecap="butt">
      <text x="240.5" xml:space="preserve" y="186.5737" clip-path="url(#clipPath2)" stroke="none">Name</text>
    </g>
    <g stroke-miterlimit="1.45" font-size="11px" font-family="'Inter'" transform="matrix(1,0,0,1,17,29)" stroke-linecap="butt">
      <text x="308.5" xml:space="preserve" y="186.5737" clip-path="url(#clipPath2)" stroke="none">TEXT</text>
    </g>
    <g fill="rgb(255,255,204)" transform="matrix(1,0,0,1,17,29)" stroke="rgb(255,255,204)">
      <rect x="219.5" width="161" height="86.4599" y="356.7701" clip-path="url(#clipPath2)" stroke="none"/>
    </g>
    <g fill="gray" stroke-miterlimit="1.45" transform="matrix(1,0,0,1,17,29)" stroke-linecap="butt" stroke="gray">
      <rect fill="none" x="219.5" width="161" height="86.4599" y="356.7701" clip-path="url(#clipPath2)"/>
      <text x="278" y="374.3948" clip-path="url(#clipPath2)" fill="black" font-family="'Inter'" stroke="none" xml:space="preserve">Session</text>
      <line stroke-linecap="square" clip-path="url(#clipPath2)" fill="none" x1="220" x2="379" y1="381" y2="381" stroke-miterlimit="10"/>
    </g>
    <g stroke-linecap="round" transform="matrix(0.6667,0,0,0.6667,240.5,413.2924)" fill="silver" image-rendering="optimizeQuality" stroke-linejoin="round" stroke="silver" stroke-width="2" stroke-miterlimit="4">
      <path fill="none" d="M12.4 2.7 C13.3 1.8 14.9 1.8 15.8 2.7 L21.3 8.2 C22.2 9.1 22.2 10.7 21.3 11.6 L17.6 15.3 C16.7 16.2 15.1 16.2 14.2 15.3 L8.7 9.8 C7.8 8.9 7.8 7.3 8.7 6.4 Z" clip-path="url(#clipPath4)"/>
    </g>
    <g stroke-linecap="round" transform="matrix(0.6667,0,0,0.6667,240.5,413.2924)" fill="silver" image-rendering="optimizeQuality" stroke-linejoin="round" stroke="silver" stroke-width="2" stroke-miterlimit="4">
      <path fill="none" d="M14 7 L17 10" clip-path="url(#clipPath4)"/>
    </g>
    <g stroke-linecap="round" transform="matrix(0.6667,0,0,0.6667,240.5,413.2924)" fill="silver" image-rendering="optimizeQuality" stroke-linejoin="round" stroke="silver" stroke-width="2" stroke-miterlimit="4">
      <path fill="none" d="M9.4 10.6 L2 18 L2 21 C2 21.6 2.4 22 3 22 L7 22 L7 19 L10 19 L10 16 L12 16 L13.4 14.6" clip-path="url(#clipPath4)"/>
    </g>
    <g stroke-miterlimit="1.45" font-size="11px" font-family="'Inter'" transform="matrix(1,0,0,1,17,29)" stroke-linecap="butt">
      <text x="245.5" xml:space="preserve" y="397.9487" clip-path="url(#clipPath2)" stroke="none">IDSession</text>
    </g>
    <g stroke-miterlimit="1.45" font-size="11px" font-family="'Inter'" transform="matrix(1,0,0,1,17,29)" stroke-linecap="butt">
      <text x="303.5" xml:space="preserve" y="397.9487" clip-path="url(#clipPath2)" stroke="none">INTEGER</text>
      <text x="245.5" xml:space="preserve" y="417.2612" clip-path="url(#clipPath2)" stroke="none">Hours</text>
      <text x="303.5" xml:space="preserve" y="417.2612" clip-path="url(#clipPath2)" stroke="none">INTEGER</text>
      <text x="245.5" xml:space="preserve" y="436.5737" clip-path="url(#clipPath2)" stroke="none">IDCourse</text>
      <text x="303.5" xml:space="preserve" y="436.5737" clip-path="url(#clipPath2)" stroke="none">INTEGER</text>
    </g>
    <g stroke-linecap="round" transform="matrix(0.6667,0,0,0.6667,375.5,451.9174)" fill="silver" image-rendering="optimizeQuality" stroke-linejoin="round" stroke="silver" stroke-width="2" stroke-miterlimit="4">
      <path fill="none" d="M7 7 L17 7 L17 17" clip-path="url(#clipPath4)"/>
    </g>
    <g stroke-linecap="round" transform="matrix(0.6667,0,0,0.6667,375.5,451.9174)" fill="silver" image-rendering="optimizeQuality" stroke-linejoin="round" stroke="silver" stroke-width="2" stroke-miterlimit="4">
      <path fill="none" d="M7 17 L17 7" clip-path="url(#clipPath4)"/>
    </g>
    <g fill="rgb(255,255,204)" transform="matrix(1,0,0,1,17,29)" stroke="rgb(255,255,204)">
      <rect x="447.5" width="155" height="67.1474" y="116.4263" clip-path="url(#clipPath2)" stroke="none"/>
    </g>
    <g fill="gray" stroke-miterlimit="1.45" transform="matrix(1,0,0,1,17,29)" stroke-linecap="butt" stroke="gray">
      <rect fill="none" x="447.5" width="155" height="67.1474" y="116.4263" clip-path="url(#clipPath2)"/>
      <text x="498.5" y="134.051" clip-path="url(#clipPath2)" fill="black" font-family="'Inter'" stroke="none" xml:space="preserve">Professor</text>
      <line stroke-linecap="square" clip-path="url(#clipPath2)" fill="none" x1="448" x2="601" y1="140" y2="140" stroke-miterlimit="10"/>
    </g>
    <g stroke-linecap="round" transform="matrix(0.6667,0,0,0.6667,468.5,172.9487)" fill="silver" image-rendering="optimizeQuality" stroke-linejoin="round" stroke="silver" stroke-width="2" stroke-miterlimit="4">
      <path fill="none" d="M12.4 2.7 C13.3 1.8 14.9 1.8 15.8 2.7 L21.3 8.2 C22.2 9.1 22.2 10.7 21.3 11.6 L17.6 15.3 C16.7 16.2 15.1 16.2 14.2 15.3 L8.7 9.8 C7.8 8.9 7.8 7.3 8.7 6.4 Z" clip-path="url(#clipPath6)"/>
    </g>
    <g stroke-linecap="round" transform="matrix(0.6667,0,0,0.6667,468.5,172.9487)" fill="silver" image-rendering="optimizeQuality" stroke-linejoin="round" stroke="silver" stroke-width="2" stroke-miterlimit="4">
      <path fill="none" d="M14 7 L17 10" clip-path="url(#clipPath6)"/>
    </g>
    <g stroke-linecap="round" transform="matrix(0.6667,0,0,0.6667,468.5,172.9487)" fill="silver" image-rendering="optimizeQuality" stroke-linejoin="round" stroke="silver" stroke-width="2" stroke-miterlimit="4">
      <path fill="none" d="M9.4 10.6 L2 18 L2 21 C2 21.6 2.4 22 3 22 L7 22 L7 19 L10 19 L10 16 L12 16 L13.4 14.6" clip-path="url(#clipPath6)"/>
    </g>
    <g stroke-miterlimit="1.45" font-size="11px" font-family="'Inter'" transform="matrix(1,0,0,1,17,29)" stroke-linecap="butt">
      <text x="473.5" xml:space="preserve" y="157.6049" clip-path="url(#clipPath2)" stroke="none">IDProfessor</text>
    </g>
    <g stroke-miterlimit="1.45" font-size="11px" font-family="'Inter'" transform="matrix(1,0,0,1,17,29)" stroke-linecap="butt">
      <text x="541.5" xml:space="preserve" y="157.6049" clip-path="url(#clipPath2)" stroke="none">INTEGER</text>
      <text x="473.5" xml:space="preserve" y="176.9174" clip-path="url(#clipPath2)" stroke="none">Name</text>
      <text x="541.5" xml:space="preserve" y="176.9174" clip-path="url(#clipPath2)" stroke="none">TEXT</text>
    </g>
    <g fill="rgb(255,255,204)" transform="matrix(1,0,0,1,17,29)" stroke="rgb(255,255,204)">
      <rect x="30.5" width="139" height="86.4599" y="231.7701" clip-path="url(#clipPath2)" stroke="none"/>
    </g>
    <g fill="gray" stroke-miterlimit="1.45" transform="matrix(1,0,0,1,17,29)" stroke-linecap="butt" stroke="gray">
      <rect fill="none" x="30.5" width="139" height="86.4599" y="231.7701" clip-path="url(#clipPath2)"/>
      <text x="81" y="249.3948" clip-path="url(#clipPath2)" fill="black" font-family="'Inter'" stroke="none" xml:space="preserve">Rooms</text>
      <line stroke-linecap="square" clip-path="url(#clipPath2)" fill="none" x1="31" x2="168" y1="256" y2="256" stroke-miterlimit="10"/>
    </g>
    <g stroke-linecap="round" transform="matrix(0.6667,0,0,0.6667,51.5,288.2924)" fill="silver" image-rendering="optimizeQuality" stroke-linejoin="round" stroke="silver" stroke-width="2" stroke-miterlimit="4">
      <path fill="none" d="M12.4 2.7 C13.3 1.8 14.9 1.8 15.8 2.7 L21.3 8.2 C22.2 9.1 22.2 10.7 21.3 11.6 L17.6 15.3 C16.7 16.2 15.1 16.2 14.2 15.3 L8.7 9.8 C7.8 8.9 7.8 7.3 8.7 6.4 Z" clip-path="url(#clipPath4)"/>
    </g>
    <g stroke-linecap="round" transform="matrix(0.6667,0,0,0.6667,51.5,288.2924)" fill="silver" image-rendering="optimizeQuality" stroke-linejoin="round" stroke="silver" stroke-width="2" stroke-miterlimit="4">
      <path fill="none" d="M14 7 L17 10" clip-path="url(#clipPath4)"/>
    </g>
    <g stroke-linecap="round" transform="matrix(0.6667,0,0,0.6667,51.5,288.2924)" fill="silver" image-rendering="optimizeQuality" stroke-linejoin="round" stroke="silver" stroke-width="2" stroke-miterlimit="4">
      <path fill="none" d="M9.4 10.6 L2 18 L2 21 C2 21.6 2.4 22 3 22 L7 22 L7 19 L10 19 L10 16 L12 16 L13.4 14.6" clip-path="url(#clipPath4)"/>
    </g>
    <g stroke-miterlimit="1.45" font-size="11px" font-family="'Inter'" transform="matrix(1,0,0,1,17,29)" stroke-linecap="butt">
      <text x="56.5" xml:space="preserve" y="272.9487" clip-path="url(#clipPath2)" stroke="none">IDRoom</text>
    </g>
    <g stroke-miterlimit="1.45" font-size="11px" font-family="'Inter'" transform="matrix(1,0,0,1,17,29)" stroke-linecap="butt">
      <text x="108.5" xml:space="preserve" y="272.9487" clip-path="url(#clipPath2)" stroke="none">INTEGER</text>
      <text x="56.5" xml:space="preserve" y="292.2612" clip-path="url(#clipPath2)" stroke="none">Capacity</text>
      <text x="108.5" xml:space="preserve" y="292.2612" clip-path="url(#clipPath2)" stroke="none">INTEGER</text>
      <text x="56.5" xml:space="preserve" y="311.5737" clip-path="url(#clipPath2)" stroke="none">Name</text>
      <text x="108.5" xml:space="preserve" y="311.5737" clip-path="url(#clipPath2)" stroke="none">TEXT</text>
    </g>
    <g fill="rgb(255,255,204)" transform="matrix(1,0,0,1,17,29)" stroke="rgb(255,255,204)">
      <rect x="30.5" width="139" height="86.4599" y="356.7701" clip-path="url(#clipPath2)" stroke="none"/>
    </g>
    <g fill="gray" stroke-miterlimit="1.45" transform="matrix(1,0,0,1,17,29)" stroke-linecap="butt" stroke="gray">
      <rect fill="none" x="30.5" width="139" height="86.4599" y="356.7701" clip-path="url(#clipPath2)"/>
      <text x="67.5" y="374.3948" clip-path="url(#clipPath2)" fill="black" font-family="'Inter'" stroke="none" xml:space="preserve">SCHEDULE</text>
      <line stroke-linecap="square" clip-path="url(#clipPath2)" fill="none" x1="31" x2="168" y1="381" y2="381" stroke-miterlimit="10"/>
    </g>
    <g stroke-miterlimit="1.45" font-size="11px" font-family="'Inter'" transform="matrix(1,0,0,1,17,29)" stroke-linecap="butt">
      <text x="40.5" xml:space="preserve" y="397.9487" clip-path="url(#clipPath2)" stroke="none">Timeslot</text>
      <text x="92.5" xml:space="preserve" y="397.9487" clip-path="url(#clipPath2)" stroke="none">INTEGER</text>
      <text x="40.5" xml:space="preserve" y="417.2612" clip-path="url(#clipPath2)" stroke="none">Session</text>
      <text x="92.5" xml:space="preserve" y="417.2612" clip-path="url(#clipPath2)" stroke="none">INTEGER</text>
    </g>
    <g stroke-linecap="round" transform="matrix(0.6667,0,0,0.6667,164.5,432.6049)" fill="silver" image-rendering="optimizeQuality" stroke-linejoin="round" stroke="silver" stroke-width="2" stroke-miterlimit="4">
      <path fill="none" d="M7 7 L17 7 L17 17" clip-path="url(#clipPath4)"/>
    </g>
    <g stroke-linecap="round" transform="matrix(0.6667,0,0,0.6667,164.5,432.6049)" fill="silver" image-rendering="optimizeQuality" stroke-linejoin="round" stroke="silver" stroke-width="2" stroke-miterlimit="4">
      <path fill="none" d="M7 17 L17 7" clip-path="url(#clipPath4)"/>
    </g>
    <g stroke-miterlimit="1.45" font-size="11px" font-family="'Inter'" transform="matrix(1,0,0,1,17,29)" stroke-linecap="butt">
      <text x="40.5" xml:space="preserve" y="436.5737" clip-path="url(#clipPath2)" stroke="none">Room</text>
    </g>
    <g stroke-miterlimit="1.45" font-size="11px" font-family="'Inter'" transform="matrix(1,0,0,1,17,29)" stroke-linecap="butt">
      <text x="92.5" xml:space="preserve" y="436.5737" clip-path="url(#clipPath2)" stroke="none">INTEGER</text>
    </g>
    <g stroke-linecap="round" transform="matrix(0.6667,0,0,0.6667,164.5,451.9174)" fill="silver" image-rendering="optimizeQuality" stroke-linejoin="round" stroke="silver" stroke-width="2" stroke-miterlimit="4">
      <path fill="none" d="M7 7 L17 7 L17 17" clip-path="url(#clipPath4)"/>
    </g>
    <g stroke-linecap="round" transform="matrix(0.6667,0,0,0.6667,164.5,451.9174)" fill="silver" image-rendering="optimizeQuality" stroke-linejoin="round" stroke="silver" stroke-width="2" stroke-miterlimit="4">
      <path fill="none" d="M7 17 L17 7" clip-path="url(#clipPath4)"/>
    </g>
    <g fill="gray" stroke-miterlimit="1.45" transform="matrix(1,0,0,1,17,29)" stroke-linecap="butt" stroke="gray">
      <path fill="none" d="M75 116.3793 L75 76.2769" clip-path="url(#clipPath2)"/>
    </g>
    <g fill="gray" stroke-miterlimit="1.45" transform="matrix(1,0,0,1,17,29)" stroke-linecap="butt" stroke="gray">
      <path d="M75 68.2769 L70 80.2769 L75 77.2769 L80 80.2769 Z" stroke="none" clip-path="url(#clipPath2)"/>
      <path fill="none" d="M153.5298 150 L206.4702 150" clip-path="url(#clipPath2)"/>
      <path d="M214.4702 150 L202.4702 145 L205.4702 150 L202.4702 155 Z" clip-path="url(#clipPath2)" stroke="none"/>
      <path fill="none" d="M300 356.7301 L300 201.2699" clip-path="url(#clipPath2)"/>
      <path d="M300 193.2699 L295 205.2699 L300 202.2699 L305 205.2699 Z" clip-path="url(#clipPath2)" stroke="none"/>
      <path fill="none" d="M385.5303 150 L439.4697 150" clip-path="url(#clipPath2)"/>
      <path d="M447.4697 150 L435.4697 145 L438.4697 150 L435.4697 155 Z" clip-path="url(#clipPath2)" stroke="none"/>
      <path fill="none" d="M100 356.7324 L100 326.2675" clip-path="url(#clipPath2)"/>
      <path d="M100 318.2675 L95 330.2675 L100 327.2675 L105 330.2675 Z" clip-path="url(#clipPath2)" stroke="none"/>
      <path fill="none" d="M169.5488 400 L211.4512 400" clip-path="url(#clipPath2)"/>
      <path d="M219.4512 400 L207.4512 395 L210.4512 400 L207.4512 405 Z" clip-path="url(#clipPath2)" stroke="none"/>
    </g>
  </g>
</svg>
